<?xml version="1.0" encoding="UTF-8"?><svg id="Layer_1" xmlns="http://www.w3.org/2000/svg" viewBox="0 0 572.87 176.1"><defs><style>.cls-1{fill:#3e3e60;}.cls-2{fill:#d35f5f;}.cls-3{fill:#494975;}.cls-4{fill:rgba(51,158,78,0);}.cls-5{fill:#a34d4d;}</style></defs><g><path class="cls-1" d="M75.52,91.93c.3-2.3,.1-4.5-.4-6.7-.7-2.7-2.1-5.1-4.3-6.9,0,0-12.1-9.7-47.1-21,0,0-18.8-6.1-13.5-17.2l-4.1,2.2-4.9-.9s-2,9.7,.2,15.6c0,0,4,10.2,26,16.9,0,0,58.7,14.1,33.8,27.8l14.3-9.8Z"/><path class="cls-4" d="M75.52,126.53c.3-2.2,.1-4.5-.4-6.7-.6-2.7-2.1-5.1-4.2-6.9,0,0-11.5-11.7-46.3-21.6,0,0-19.3-5.4-14-16.5l-4,2.2-5.5,7.9s-.6,.9,1.1,5.7c0,0,3.6,9.2,25.4,15.8,0,0,54.1,15.3,30.9,28.9l17-8.8Z"/><path class="cls-3" d="M1.52,57.03c-1.8-6,17.5-11.9,17.5-11.9C65.12,29.03,73.82,11.13,75.02,2.23c.3-1.9-2.1-3-3.4-1.6-4.8,5.1-15.9,14-38.8,20.3C5.82,28.33,1.32,41.43,1.32,41.43c-1.8,5.1-1.7,10.6,.2,15.6h0Z"/><path class="cls-5" d="M75.52,126.53c.3-2.2,.1-4.5-.4-6.7-.6-2.7-2.1-5.1-4.2-6.9,0,0-11.5-11.7-46.3-21.6,0,0-19.3-5.4-14-16.5l-4,2.2-5.5,7.9s-.6,.9,1.1,5.7c0,0,3.6,9.2,25.4,15.8,0,0,55.4,15.1,30.9,28.9l17-8.8Z"/><path class="cls-2" d="M2.12,90.63c-.9-6.6,17.1-12.8,17.1-12.8,42.1-14.8,52.8-31.1,55.1-40.5,.5-2-2-3.3-3.4-1.9-4.5,4.7-14.8,11.6-38,18.8C5.02,61.63,1.12,74.23,1.12,74.23c0,0-3.1,8.3,1,16.4h0Z"/><path class="cls-3" d="M70.82,78.33s8.8,9.3-4.2,13.6C55.12,95.63,2.52,104.83,.12,139.13c-.1,2,2.5,3,3.6,1.3,5.3-7.4,18.9-19.8,53.9-31.3,17.5-5.7,19.3-16.9,17.4-24-.6-2.6-2.1-5-4.2-6.8Z"/><path class="cls-2" d="M70.82,112.93s6.9,9.1-4.6,13.1C54.82,130.03,2.52,139.43,.12,173.93c-.1,2,2.5,3,3.6,1.3,5.3-7.5,18.9-19.9,53.9-31.3,17.5-5.7,19.3-16.9,17.4-24-.6-2.8-2.1-5.2-4.2-7Z"/></g><g><path class="cls-3" d="M175.89,87.47c0,11.3-17.9,16.4-35.2,16.4s-35.2-5.4-35.2-16.4c0-11.7,17.9-16.4,35.2-16.4s35.2,4.7,35.2,16.4Zm-35.1,10.1c10.5,0,18.2-3.1,18.2-10.2,0-6-6.7-10.4-18.2-10.4-10.4,0-18.8,3.4-18.8,10.4,0,8,10.3,10.3,18.8,10.2h0Z"/><path class="cls-3" d="M122.79,32.57h13.2s-2.5,23.9,26,24.2v8.9s-21.1,1.5-33.4-13.1c-7.7,9.3-19.5,14.2-31.5,13.2v-9.1s25.8,2,25.7-24.1Z"/><path class="cls-3" d="M152.79,32.57v8.9h12.2v29.8h12.4v-28.8s.5-9.8-7.2-9.8l-17.4-.1h0Z"/><path class="cls-3" d="M192.39,32.57h63.6s12.6-.2,12.6,13.4v25h-76.2v-7.3h29v-10.3h15.1v9.8h17.2v-20.8h-61.3v-9.8h0Z"/><path class="cls-3" d="M192.39,77.17h15.5v15.8h60.7v10.8h-63.7s-12.3,.6-12.3-12.7l-.2-13.9h0Z"/><polygon class="cls-3" points="278.09 78.17 361.19 78.17 361.19 89.87 328.69 89.87 328.69 103.67 312.79 103.67 312.79 89.87 278.09 89.87 278.09 78.17"/><path class="cls-3" d="M489.69,34.77h61.4v10.4h-21.3s3.7,14.4,21.1,14.6v10.4s-18.9,2.3-29.9-14.3c-7.8,9.1-19.2,14.4-31.2,14.5v-10.6s15.7-.8,21.7-14.6h-21.8v-10.4Z"/><polygon class="cls-3" points="486.89 76.17 554.59 76.17 554.59 85.57 526.89 85.57 526.89 103.07 514.49 103.07 514.49 85.57 486.89 85.57 486.89 76.17"/><path class="cls-3" d="M555.39,33.27s20.1,31,0,70.2h8.9s19.3-30.5,0-70.2h-8.9Z"/><path class="cls-3" d="M484.59,33.27s-20.1,31,0,70.2h-8.9s-19.3-30.5,0-70.2h8.9Z"/><path class="cls-3" d="M375.59,76.97h60.2s13.2-.5,13.2,10.9v16h-13.8v-16.7h-59.4l-.2-10.2h0Z"/><path class="cls-3" d="M343.99,32.57h-62.9v23.9c0,13.7,15.7,13.2,15.7,13.2h61.6v-22.2c-.1-15.2-14.4-14.9-14.4-14.9Zm-2.3,27h-44.2v-17.3h44.2v17.3Z"/><path class="cls-3" d="M439.49,32.57h-39.6s-27.6-.9-27.6,18.6,27.1,19.5,27.1,19.5c24.1,0,26.9-10.5,26.9-10.5h8.8v11.1h14.6v-28.4c-.2-10.4-10.2-10.3-10.2-10.3Zm-36.6,30.9h-6.3c-6.5,.4-12.1-4.6-12.6-11.1-.4-6.5,4.6-12.1,11.1-12.6h7.8c6.5-.4,12.1,4.6,12.6,11.1,.4,6.5-4.6,12.1-11.1,12.6h-1.5Zm32.1-12.2h-7.6c.4-3.3-.3-6.6-2.1-9.3h9.6v9.3h.1Z"/></g><g><path class="cls-3" d="M118.52,126.73c-.5-.8-1.3-1.3-2.2-1.7-.9-.4-1.9-.5-2.9-.5-.6,0-1.2,.1-1.7,.2-.6,.1-1.1,.3-1.5,.6-.5,.3-.8,.7-1.1,1.1-.3,.5-.4,1-.4,1.6,0,.9,.3,1.7,1,2.1s1.5,.9,2.5,1.3c1,.4,2.1,.7,3.3,1.1,1.2,.3,2.3,.8,3.3,1.4,1,.6,1.9,1.4,2.5,2.4,.7,1,1,2.3,1,3.9,0,1.5-.3,2.8-.9,3.9-.6,1.1-1.3,2-2.3,2.8-1,.7-2.1,1.3-3.4,1.6s-2.6,.5-4,.5c-1.8,0-3.5-.3-5.2-.9-1.7-.6-3.1-1.5-4.3-2.9l3.9-3.6c.6,.9,1.5,1.6,2.5,2.1s2.1,.8,3.3,.8c.6,0,1.2-.1,1.8-.2,.6-.2,1.1-.4,1.6-.7s.9-.7,1.2-1.2c.3-.5,.4-1,.4-1.7,0-1-.3-1.8-1-2.3s-1.5-1-2.5-1.4-2.1-.7-3.3-1.1c-1.2-.3-2.3-.8-3.3-1.4-1-.6-1.9-1.4-2.5-2.3s-1-2.3-1-3.9c0-1.4,.3-2.7,.9-3.7s1.4-1.9,2.4-2.6,2.1-1.2,3.4-1.5,2.6-.5,3.9-.5c1.5,0,3,.2,4.4,.7,1.4,.4,2.7,1.2,3.9,2.2l-3.7,3.8Z"/><path class="cls-3" d="M127.82,120.83h19.2v4.4h-14v6.8h13.3v4.4h-13.3v7.5h14.8v4.4h-19.9v-27.5h-.1Z"/><path class="cls-3" d="M151.22,134.73c0-2.2,.4-4.2,1.1-6,.8-1.8,1.8-3.3,3.2-4.6s3-2.3,4.8-2.9c1.9-.7,3.9-1,6.2-1s4.3,.3,6.2,1,3.5,1.6,4.9,2.9,2.4,2.8,3.2,4.6,1.1,3.8,1.1,6-.4,4.1-1.1,5.9c-.8,1.8-1.8,3.3-3.2,4.6s-3,2.3-4.9,3-4,1.1-6.2,1.1-4.3-.3-6.2-1-3.5-1.7-4.8-2.9-2.4-2.8-3.2-4.5c-.7-2.1-1.1-4.1-1.1-6.2Zm5.4-.3c0,1.5,.2,2.8,.7,4.1,.5,1.2,1.2,2.3,2,3.2,.9,.9,1.9,1.6,3.1,2.1,1.2,.5,2.6,.8,4.1,.8s2.9-.3,4.1-.8c1.2-.5,2.3-1.2,3.1-2.1,.9-.9,1.5-2,2-3.2s.7-2.6,.7-4.1c0-1.4-.2-2.7-.7-3.9s-1.2-2.2-2-3.1c-.9-.9-1.9-1.6-3.1-2.1-1.2-.5-2.6-.8-4.1-.8s-2.9,.3-4.1,.8c-1.2,.5-2.3,1.2-3.1,2.1-.9,.9-1.5,1.9-2,3.1-.5,1.2-.7,2.5-.7,3.9Z"/><path class="cls-3" d="M186.82,120.83h6.8l14,20.5h.1v-20.5h5.2v27.6h-6.5l-14.3-21.2h-.1v21.2h-5.2v-27.6Z"/><path class="cls-3" d="M245.12,146.33c-3.6,1.8-7.6,2.7-12,2.7-2.2,0-4.3-.3-6.2-1s-3.5-1.7-4.8-2.9-2.4-2.8-3.2-4.5c-.8-1.8-1.1-3.7-1.1-5.9s.4-4.2,1.1-6c.8-1.8,1.8-3.3,3.2-4.6s3-2.3,4.8-2.9c1.9-.7,3.9-1,6.2-1s4.3,.3,6.2,.8,3.7,1.4,5.2,2.7l-3.8,3.7c-.9-.9-2.1-1.5-3.4-2-1.3-.5-2.7-.7-4.2-.7s-2.9,.3-4.1,.8c-1.2,.5-2.3,1.2-3.1,2.1-.9,.9-1.5,1.9-2,3.1-.5,1.2-.7,2.5-.7,3.9,0,1.5,.2,2.8,.7,4.1,.5,1.2,1.2,2.3,2,3.2,.9,.9,1.9,1.6,3.1,2.1,1.2,.5,2.6,.8,4.1,.8,1.3,0,2.5-.1,3.7-.4,1.2-.2,2.2-.6,3.1-1.1v-6.5h-5.9v-4.4h11.1v13.9h0Z"/><path class="cls-3" d="M251.22,120.83h5.2v11.7h.2l12-11.7h7l-13.5,12.8,14.4,14.9h-7.2l-12.6-13.6h-.3v13.6h-5.2v-27.7Z"/><path class="cls-3" d="M277.72,134.73c0-2.2,.4-4.2,1.1-6,.8-1.8,1.8-3.3,3.2-4.6,1.4-1.3,3-2.3,4.8-2.9,1.9-.7,3.9-1,6.2-1s4.3,.3,6.2,1c1.9,.7,3.5,1.6,4.9,2.9s2.4,2.8,3.2,4.6c.8,1.8,1.1,3.8,1.1,6s-.4,4.1-1.1,5.9c-.8,1.8-1.8,3.3-3.2,4.6-1.4,1.3-3,2.3-4.9,3s-4,1.1-6.2,1.1-4.3-.3-6.2-1c-1.9-.7-3.5-1.7-4.8-2.9s-2.4-2.8-3.2-4.5c-.7-2.1-1.1-4.1-1.1-6.2Zm5.4-.3c0,1.5,.2,2.8,.7,4.1,.5,1.2,1.2,2.3,2,3.2,.9,.9,1.9,1.6,3.1,2.1s2.6,.8,4.1,.8,2.9-.3,4.1-.8,2.3-1.2,3.2-2.1c.9-.9,1.5-2,2-3.2s.7-2.6,.7-4.1c0-1.4-.2-2.7-.7-3.9s-1.2-2.2-2-3.1c-.9-.9-1.9-1.6-3.2-2.1-1.2-.5-2.6-.8-4.1-.8s-2.9,.3-4.1,.8-2.3,1.2-3.1,2.1c-.9,.9-1.5,1.9-2,3.1-.5,1.2-.7,2.5-.7,3.9Z"/><path class="cls-3" d="M313.32,120.83h5.2v11h13.5v-11h5.2v27.6h-5.2v-12.2h-13.5v12.2h-5.2v-27.6Z"/><path class="cls-3" d="M343.62,120.83h6.8l14,20.5h.1v-20.5h5.2v27.6h-6.5l-14.3-21.2h-.1v21.2h-5.2v-27.6Z"/><path class="cls-3" d="M394.22,125.23h-8.9v-4.4h22.9v4.4h-8.9v23.2h-5.2v-23.2h.1Z"/><path class="cls-3" d="M411.82,120.83h10.1c1.4,0,2.7,.1,4,.4,1.3,.2,2.4,.7,3.5,1.3s1.8,1.4,2.4,2.4,.9,2.3,.9,3.9c0,2-.6,3.7-1.7,5-1.2,1.4-2.8,2.2-5,2.5l7.7,12.2h-6.2l-6.7-11.7h-3.8v11.7h-5.2v-27.7h0Zm9.1,11.7c.7,0,1.5,0,2.2-.1s1.4-.2,2-.5c.6-.2,1.1-.6,1.5-1.1s.6-1.2,.6-2.1c0-.8-.2-1.5-.5-2-.4-.5-.8-.9-1.4-1.1-.6-.2-1.2-.4-1.9-.5-.7-.1-1.4-.1-2-.1h-4.5v7.5h4Z"/><path class="cls-3" d="M446.92,120.83h4.5l12.5,27.6h-5.9l-2.7-6.3h-12.6l-2.6,6.3h-5.8l12.6-27.6Zm6.6,17l-4.5-11.2-4.5,11.2h9Z"/><path class="cls-3" d="M467.12,120.83h11.4c1.9,0,3.7,.3,5.5,.8,1.8,.6,3.3,1.4,4.7,2.6,1.4,1.1,2.5,2.6,3.3,4.3s1.2,3.8,1.2,6.1-.5,4.4-1.4,6.1-2.2,3.2-3.6,4.3c-1.5,1.1-3.1,2-4.9,2.5-1.8,.6-3.6,.8-5.3,.8h-10.8v-27.5h-.1Zm9,23.1c1.6,0,3.1-.2,4.6-.5,1.4-.4,2.7-.9,3.7-1.6,1.1-.7,1.9-1.7,2.5-2.9s.9-2.6,.9-4.3-.3-3.1-.8-4.3-1.3-2.2-2.3-2.9-2.1-1.3-3.4-1.6c-1.3-.4-2.8-.5-4.4-.5h-4.7v18.7l3.9-.1h0Z"/><path class="cls-3" d="M498.12,120.83h19.2v4.4h-14v6.8h13.3v4.4h-13.3v7.5h14.8v4.4h-19.9v-27.5h-.1Z"/><path class="cls-3" d="M523.12,120.83h10.1c1.4,0,2.7,.1,4,.4s2.4,.7,3.5,1.3c1,.6,1.8,1.4,2.4,2.4,.6,1,.9,2.3,.9,3.9,0,2-.6,3.7-1.7,5-1.2,1.4-2.8,2.2-5,2.5l7.7,12.2h-6.2l-6.7-11.7h-3.8v11.7h-5.2v-27.7Zm9.2,11.7c.7,0,1.5,0,2.2-.1s1.4-.2,2-.5,1.1-.6,1.5-1.1,.6-1.2,.6-2.1c0-.8-.2-1.5-.5-2-.4-.5-.8-.9-1.4-1.1-.6-.2-1.2-.4-1.9-.5s-1.4-.1-2-.1h-4.5v7.5h4Z"/><path class="cls-3" d="M563.12,126.73c-.5-.8-1.3-1.3-2.2-1.7s-1.9-.5-2.9-.5c-.6,0-1.2,.1-1.7,.2-.6,.1-1.1,.3-1.5,.6-.5,.3-.8,.7-1.1,1.1-.3,.5-.4,1-.4,1.6,0,.9,.3,1.7,1,2.1s1.5,.9,2.5,1.3c1,.4,2.1,.7,3.3,1.1,1.2,.3,2.3,.8,3.3,1.4,1,.6,1.9,1.4,2.5,2.4,.7,1,1,2.3,1,3.9,0,1.5-.3,2.8-.9,3.9-.6,1.1-1.3,2-2.3,2.8-1,.7-2.1,1.3-3.4,1.6-1.3,.4-2.6,.5-4,.5-1.8,0-3.5-.3-5.2-.9-1.7-.6-3.1-1.5-4.3-2.9l3.9-3.6c.6,.9,1.5,1.6,2.5,2.1s2.1,.8,3.3,.8c.6,0,1.2-.1,1.8-.2s1.1-.4,1.6-.7,.9-.7,1.2-1.2,.5-1,.5-1.7c0-1-.3-1.8-1-2.3s-1.5-1-2.5-1.4-2.1-.7-3.3-1.1c-1.2-.3-2.3-.8-3.3-1.4-1-.6-1.9-1.4-2.5-2.3s-1-2.3-1-3.9c0-1.4,.3-2.7,.9-3.7s1.4-1.9,2.4-2.6,2.1-1.2,3.4-1.5c1.3-.3,2.6-.5,3.9-.5,1.5,0,3,.2,4.4,.7,1.4,.4,2.7,1.2,3.9,2.2l-3.8,3.8Z"/></g></svg>